<svg xmlns="http://www.w3.org/2000/svg" width="200" height="208" viewBox="0 0 200 208" fill="none">
  <path fill-rule="evenodd" clip-rule="evenodd" d="M105.321 116.963C165.997 116.097 198 100.086 198 59.5C198 17.7436 164.124 2 100 2C35.8761 2 2 17.7436 2 59.5C2 101.085 35.5986 116.87 99.2119 116.999C99.8417 120.128 100.436 123.505 100.919 126.999C101.967 134.585 102.47 142.608 101.707 149.791C100.938 157.026 98.925 163.024 95.2929 166.968C85.6363 177.453 74.3529 185.925 65.4396 191.791C60.9919 194.718 57.1552 196.983 54.4371 198.512C53.0785 199.277 52.0006 199.857 51.2671 200.244C50.9003 200.437 50.6198 200.582 50.4334 200.677C50.3402 200.725 50.2705 200.76 50.2254 200.783L50.1763 200.808L50.1657 200.813L50.164 200.814C50.1643 200.814 50.1647 200.813 51.5 203.5C52.8353 206.186 52.8359 206.186 52.8365 206.186L52.8384 206.185L52.8438 206.182L52.8619 206.173L52.9263 206.141L52.9763 206.115C53.0027 206.102 53.0327 206.087 53.0662 206.07C53.0965 206.054 53.1296 206.038 53.1656 206.019C53.3731 205.913 53.6756 205.757 54.0648 205.552C54.8433 205.141 55.9696 204.535 57.3795 203.741C60.1985 202.155 64.1563 199.818 68.7381 196.803C77.8841 190.784 89.6005 182.006 99.7064 171.032C104.596 165.723 106.844 158.227 107.673 150.425C108.508 142.571 107.945 134.015 106.863 126.178C106.42 122.974 105.888 119.872 105.321 116.963Z" fill="white"/>
  <path d="M105.321 116.963L105.3 115.463L103.506 115.488L103.849 117.249L105.321 116.963ZM99.2119 116.999L100.682 116.703L100.441 115.502L99.215 115.499L99.2119 116.999ZM100.919 126.999L102.405 126.794L102.405 126.794L100.919 126.999ZM101.707 149.791L100.215 149.632L100.215 149.632L101.707 149.791ZM95.2929 166.968L94.1896 165.952L94.1896 165.952L95.2929 166.968ZM65.4396 191.791L64.615 190.538L64.615 190.538L65.4396 191.791ZM54.4371 198.512L55.1727 199.82L55.1727 199.82L54.4371 198.512ZM51.2671 200.244L50.5676 198.917L50.5676 198.917L51.2671 200.244ZM50.4334 200.677L51.1164 202.013L51.1165 202.013L50.4334 200.677ZM50.2254 200.783L50.8989 202.123L50.9008 202.122L50.2254 200.783ZM50.1763 200.808L50.8469 202.149L50.8497 202.148L50.1763 200.808ZM50.1657 200.813L49.4951 199.471L49.4949 199.471L50.1657 200.813ZM52.8365 206.186L53.4917 207.535L53.4984 207.532L53.5051 207.529L52.8365 206.186ZM52.8384 206.185L53.5069 207.528L53.5092 207.527L52.8384 206.185ZM52.8438 206.182L52.1734 204.84L52.173 204.84L52.8438 206.182ZM52.8619 206.173L53.5323 207.515L53.5353 207.513L52.8619 206.173ZM52.9263 206.141L53.5997 207.481L53.6028 207.48L52.9263 206.141ZM52.9763 206.115L53.6528 207.454L53.6536 207.454L52.9763 206.115ZM53.0662 206.07L52.3861 204.733L52.386 204.733L53.0662 206.07ZM53.1656 206.019L52.4826 204.684L52.4823 204.684L53.1656 206.019ZM54.0648 205.552L53.3654 204.225L53.3654 204.225L54.0648 205.552ZM57.3795 203.741L56.6439 202.434L56.6439 202.434L57.3795 203.741ZM68.7381 196.803L69.5628 198.056L69.5628 198.056L68.7381 196.803ZM99.7064 171.032L98.6031 170.016L98.6031 170.016L99.7064 171.032ZM107.673 150.425L109.165 150.583L109.165 150.583L107.673 150.425ZM106.863 126.178L105.377 126.383L105.377 126.383L106.863 126.178ZM196.5 59.5C196.5 69.4475 194.54 77.8 190.735 84.7594C186.933 91.7135 181.244 97.3606 173.652 101.834C158.413 110.815 135.568 115.031 105.3 115.463L105.343 118.463C135.75 118.029 159.244 113.807 175.175 104.419C183.169 99.7079 189.273 93.6883 193.368 86.1985C197.459 78.714 199.5 69.8454 199.5 59.5H196.5ZM100 3.5C132 3.5 156.179 7.43922 172.318 16.4027C180.357 20.8675 186.379 26.5668 190.401 33.6411C194.426 40.7198 196.5 49.2661 196.5 59.5H199.5C199.5 48.8557 197.34 39.7755 193.009 32.1583C188.675 24.5366 182.22 18.4707 173.775 13.78C156.945 4.4326 132.124 0.5 100 0.5V3.5ZM3.5 59.5C3.5 49.2661 5.57431 40.7198 9.59904 33.6411C13.6213 26.5668 19.6429 20.8675 27.6818 16.4027C43.8207 7.43922 68.0005 3.5 100 3.5V0.5C67.8756 0.5 43.0554 4.4326 26.2252 13.78C17.7797 18.4707 11.3245 24.5366 6.99111 32.1583C2.66021 39.7755 0.5 48.8557 0.5 59.5H3.5ZM99.215 115.499C67.4718 115.435 43.4897 111.454 27.4841 102.487C19.5115 98.0205 13.5391 92.3285 9.54951 85.2716C5.55735 78.2101 3.5 69.692 3.5 59.5H0.5C0.5 70.1005 2.64247 79.1499 6.93796 86.748C11.236 94.3506 17.6391 100.41 26.0178 105.104C42.7149 114.459 67.3387 118.435 99.2089 118.499L99.215 115.499ZM102.405 126.794C101.918 123.264 101.317 119.857 100.682 116.703L97.7414 117.295C98.3661 120.399 98.9555 123.745 99.4333 127.204L102.405 126.794ZM103.198 149.949C103.979 142.599 103.462 134.442 102.405 126.794L99.4333 127.204C100.472 134.727 100.96 142.617 100.215 149.632L103.198 149.949ZM96.3963 167.984C100.343 163.699 102.414 157.326 103.198 149.949L100.215 149.632C99.4614 156.725 97.5073 162.349 94.1896 165.952L96.3963 167.984ZM66.2642 193.044C75.2357 187.14 86.6273 178.591 96.3963 167.984L94.1896 165.952C84.6452 176.315 73.4701 184.71 64.615 190.538L66.2642 193.044ZM55.1727 199.82C57.916 198.276 61.783 195.993 66.2642 193.044L64.615 190.538C60.2008 193.443 56.3944 195.69 53.7015 197.205L55.1727 199.82ZM51.9665 201.571C52.7113 201.178 53.8013 200.591 55.1727 199.82L53.7015 197.205C52.3557 197.963 51.2899 198.536 50.5676 198.917L51.9665 201.571ZM51.1165 202.013C51.3081 201.915 51.5941 201.767 51.9665 201.571L50.5676 198.917C50.2066 199.107 49.9315 199.249 49.7503 199.342L51.1165 202.013ZM50.9008 202.122C50.9483 202.098 51.0205 202.062 51.1164 202.013L49.7503 199.342C49.6598 199.388 49.5927 199.422 49.55 199.444L50.9008 202.122ZM50.8497 202.148L50.8989 202.123L49.5519 199.443L49.5028 199.467L50.8497 202.148ZM50.8364 202.155L50.8469 202.149L49.5056 199.466L49.4951 199.471L50.8364 202.155ZM50.8348 202.155L50.8366 202.155L49.4949 199.471L49.4932 199.472L50.8348 202.155ZM52.8432 202.832C52.1756 201.489 51.8415 200.817 51.6744 200.481C51.5909 200.313 51.5486 200.229 51.5271 200.186C51.5169 200.165 51.5098 200.151 51.5049 200.141C51.5046 200.141 51.4966 200.125 51.4873 200.107C51.4843 200.102 51.4783 200.091 51.4706 200.077C51.4653 200.068 51.4466 200.034 51.42 199.994C51.4068 199.973 51.38 199.933 51.3424 199.886C51.3131 199.848 51.2295 199.744 51.0967 199.639C50.9608 199.531 50.6541 199.327 50.2063 199.314C49.7795 199.302 49.4602 199.489 49.4932 199.472L50.8348 202.155C50.8679 202.139 50.5486 202.325 50.1218 202.313C49.674 202.301 49.3673 202.097 49.2314 201.989C49.0986 201.883 49.015 201.779 48.9857 201.742C48.9481 201.694 48.9214 201.654 48.9081 201.634C48.8816 201.593 48.863 201.56 48.8579 201.551C48.8502 201.538 48.8443 201.527 48.8416 201.522C48.8359 201.511 48.8318 201.503 48.8309 201.501C48.8295 201.499 48.8286 201.497 48.8285 201.497C48.8285 201.497 48.8293 201.498 48.832 201.504C48.8345 201.509 48.8381 201.516 48.8431 201.526C48.8635 201.567 48.9048 201.65 48.9884 201.818C49.1553 202.153 49.4891 202.824 50.1568 204.168L52.8432 202.832ZM52.1813 204.836C52.1563 204.849 52.3182 204.762 52.5271 204.718C52.7865 204.663 53.0615 204.677 53.3222 204.767C53.7333 204.907 53.9565 205.187 53.9797 205.215C54.0442 205.291 54.0863 205.356 54.0987 205.375C54.1165 205.403 54.1296 205.426 54.1359 205.437C54.1486 205.459 54.1578 205.476 54.16 205.48C54.1635 205.487 54.166 205.491 54.1667 205.493C54.1686 205.497 54.1671 205.494 54.1561 205.472C54.1362 205.432 54.0952 205.35 54.0115 205.182C53.8446 204.847 53.5109 204.176 52.8432 202.832L50.1568 204.168C50.8244 205.511 51.1586 206.183 51.326 206.519C51.4094 206.687 51.4522 206.772 51.4743 206.816C51.4843 206.836 51.4933 206.854 51.5006 206.868C51.5027 206.872 51.5062 206.879 51.5105 206.887C51.5135 206.893 51.5232 206.911 51.5363 206.934C51.5427 206.945 51.556 206.968 51.5738 206.996C51.5864 207.015 51.6286 207.081 51.6931 207.157C51.7163 207.184 51.9396 207.464 52.3507 207.605C52.6115 207.694 52.8865 207.708 53.1459 207.654C53.3548 207.609 53.5168 207.523 53.4917 207.535L52.1813 204.836ZM52.1698 204.842L52.1679 204.843L53.5051 207.529L53.5069 207.528L52.1698 204.842ZM52.173 204.84L52.1675 204.843L53.5092 207.527L53.5146 207.524L52.173 204.84ZM52.1915 204.831L52.1734 204.84L53.5142 207.524L53.5323 207.515L52.1915 204.831ZM52.2529 204.8L52.1885 204.833L53.5353 207.513L53.5997 207.481L52.2529 204.8ZM52.2998 204.777L52.2498 204.802L53.6028 207.48L53.6528 207.454L52.2998 204.777ZM52.386 204.733C52.3535 204.749 52.3245 204.764 52.299 204.777L53.6536 207.454C53.6809 207.44 53.7119 207.424 53.7465 207.407L52.386 204.733ZM52.4823 204.684C52.4474 204.702 52.4153 204.718 52.3861 204.733L53.7464 207.407C53.7777 207.391 53.8118 207.373 53.8488 207.355L52.4823 204.684ZM53.3654 204.225C52.9817 204.427 52.6848 204.58 52.4826 204.684L53.8486 207.355C54.0615 207.246 54.3694 207.087 54.7643 206.878L53.3654 204.225ZM56.6439 202.434C55.2469 203.22 54.1327 203.82 53.3654 204.225L54.7643 206.878C55.554 206.462 56.6924 205.849 58.1152 205.049L56.6439 202.434ZM67.9135 195.55C63.3652 198.543 59.4377 200.862 56.6439 202.434L58.1152 205.049C60.9593 203.448 64.9474 201.094 69.5628 198.056L67.9135 195.55ZM98.6031 170.016C88.6095 180.868 77.0013 189.569 67.9135 195.55L69.5628 198.056C78.7669 191.998 90.5916 183.144 100.81 172.048L98.6031 170.016ZM106.181 150.266C105.367 157.927 103.178 165.048 98.6031 170.016L100.81 172.048C106.014 166.398 108.321 158.527 109.165 150.583L106.181 150.266ZM105.377 126.383C106.451 134.157 106.998 142.58 106.181 150.266L109.165 150.583C110.017 142.562 109.44 133.873 108.349 125.973L105.377 126.383ZM103.849 117.249C104.411 120.135 104.939 123.211 105.377 126.383L108.349 125.973C107.902 122.738 107.365 119.608 106.794 116.676L103.849 117.249Z" fill="black"/>
</svg>